<svg width="28" height="28" viewBox="0 0 28 28" fill="none" xmlns="http://www.w3.org/2000/svg">
<mask id="path-1-inside-1_4967_5061" fill="white">
<path fill-rule="evenodd" clip-rule="evenodd" d="M6.60912 23.0609C8.60782 24.7392 11.1859 25.75 14 25.75C15.8798 25.75 17.6543 25.299 19.2211 24.4992L18.3219 22.7341C17.036 23.3839 15.5822 23.75 14.043 23.75C11.7064 23.75 9.56689 22.9065 7.91229 21.5073L6.60912 23.0609ZM4.63433 23.9729C7.0618 26.3117 10.3629 27.75 14 27.75C17.6697 27.75 20.9974 26.2858 23.4307 23.9098C23.5352 23.8078 23.6379 23.7042 23.739 23.5989C26.0683 21.173 27.5 17.8787 27.5 14.25C27.5 6.79416 21.4558 0.75 14 0.75C10.3194 0.75 6.98282 2.22292 4.54755 4.61147C4.48733 4.67053 4.42766 4.73015 4.36856 4.79033C1.97583 7.22623 0.5 10.5658 0.5 14.25C0.5 17.8905 1.94104 21.1945 4.28383 23.6226C4.39852 23.7415 4.51538 23.8583 4.63433 23.9729ZM2.54323 15.2541L4.57836 15.0757C4.55493 14.8036 4.54297 14.5282 4.54297 14.25C4.54297 12.6498 4.93859 11.1421 5.63735 9.8192L3.83618 8.86488C2.98321 10.4714 2.5 12.3043 2.5 14.25C2.5 14.5883 2.51461 14.9232 2.54323 15.2541ZM14.043 4.75C12.1757 4.75 10.4342 5.28875 8.96548 6.21929L7.89084 4.5051C9.66089 3.3931 11.7553 2.75 14 2.75C20.3513 2.75 25.5 7.89873 25.5 14.25H23.543C23.543 9.00329 19.2897 4.75 14.043 4.75ZM14.043 21.75C18.1851 21.75 21.543 18.3921 21.543 14.25C21.543 10.1079 18.1851 6.75 14.043 6.75C9.90083 6.75 6.54297 10.1079 6.54297 14.25C6.54297 18.3921 9.90083 21.75 14.043 21.75Z"/>
</mask>
<path fill-rule="evenodd" clip-rule="evenodd" d="M6.60912 23.0609C8.60782 24.7392 11.1859 25.75 14 25.75C15.8798 25.75 17.6543 25.299 19.2211 24.4992L18.3219 22.7341C17.036 23.3839 15.5822 23.75 14.043 23.75C11.7064 23.75 9.56689 22.9065 7.91229 21.5073L6.60912 23.0609ZM4.63433 23.9729C7.0618 26.3117 10.3629 27.75 14 27.75C17.6697 27.75 20.9974 26.2858 23.4307 23.9098C23.5352 23.8078 23.6379 23.7042 23.739 23.5989C26.0683 21.173 27.5 17.8787 27.5 14.25C27.5 6.79416 21.4558 0.75 14 0.75C10.3194 0.75 6.98282 2.22292 4.54755 4.61147C4.48733 4.67053 4.42766 4.73015 4.36856 4.79033C1.97583 7.22623 0.5 10.5658 0.5 14.25C0.5 17.8905 1.94104 21.1945 4.28383 23.6226C4.39852 23.7415 4.51538 23.8583 4.63433 23.9729ZM2.54323 15.2541L4.57836 15.0757C4.55493 14.8036 4.54297 14.5282 4.54297 14.25C4.54297 12.6498 4.93859 11.1421 5.63735 9.8192L3.83618 8.86488C2.98321 10.4714 2.5 12.3043 2.5 14.25C2.5 14.5883 2.51461 14.9232 2.54323 15.2541ZM14.043 4.75C12.1757 4.75 10.4342 5.28875 8.96548 6.21929L7.89084 4.5051C9.66089 3.3931 11.7553 2.75 14 2.75C20.3513 2.75 25.5 7.89873 25.5 14.25H23.543C23.543 9.00329 19.2897 4.75 14.043 4.75ZM14.043 21.75C18.1851 21.75 21.543 18.3921 21.543 14.25C21.543 10.1079 18.1851 6.75 14.043 6.75C9.90083 6.75 6.54297 10.1079 6.54297 14.25C6.54297 18.3921 9.90083 21.75 14.043 21.75Z" fill="#003057"/>
<path d="M6.60912 23.0609L5.07684 21.7755L3.79216 23.307L5.32299 24.5925L6.60912 23.0609ZM19.2211 24.4992L20.1303 26.2806L21.9102 25.3721L21.0032 23.5914L19.2211 24.4992ZM18.3219 22.7341L20.104 21.8263L19.1991 20.0499L17.4198 20.9491L18.3219 22.7341ZM7.91229 21.5073L9.20369 19.9801L7.67045 18.6836L6.38 20.222L7.91229 21.5073ZM4.63433 23.9729L6.02201 22.5326L6.022 22.5326L4.63433 23.9729ZM23.4307 23.9098L22.0335 22.4788L22.0335 22.4788L23.4307 23.9098ZM23.739 23.5989L22.2964 22.2137L22.2964 22.2137L23.739 23.5989ZM4.54755 4.61147L3.1471 3.18362V3.18362L4.54755 4.61147ZM4.36856 4.79033L5.79536 6.19184L5.79536 6.19184L4.36856 4.79033ZM4.28383 23.6226L5.7231 22.2339L5.7231 22.2339L4.28383 23.6226ZM2.54323 15.2541L0.55067 15.4265L0.723216 17.4213L2.71785 17.2465L2.54323 15.2541ZM4.57836 15.0757L4.75297 17.0681L6.74229 16.8938L6.57099 14.9042L4.57836 15.0757ZM5.63735 9.8192L7.4058 10.7533L8.33875 8.98711L6.57371 8.05194L5.63735 9.8192ZM3.83618 8.86488L4.77253 7.09761L3.00678 6.16206L2.06972 7.92701L3.83618 8.86488ZM8.96548 6.21929L7.27094 7.28161L8.33835 8.98427L10.0359 7.90874L8.96548 6.21929ZM7.89084 4.5051L6.82691 2.81156L5.13498 3.87448L6.1963 5.56742L7.89084 4.5051ZM14 2.75V0.749999V2.75ZM25.5 14.25V16.25H27.5V14.25H25.5ZM23.543 14.25H21.543V16.25H23.543V14.25ZM14 23.75C11.6736 23.75 9.54714 22.9163 7.89526 21.5292L5.32299 24.5925C7.66851 26.562 10.6981 27.75 14 27.75V23.75ZM18.3118 22.7179C17.02 23.3772 15.5565 23.75 14 23.75V27.75C16.2031 27.75 18.2885 27.2207 20.1303 26.2806L18.3118 22.7179ZM16.5398 23.6419L17.439 25.4071L21.0032 23.5914L20.104 21.8263L16.5398 23.6419ZM14.043 25.75C15.9027 25.75 17.6647 25.3071 19.2239 24.5191L17.4198 20.9491C16.4072 21.4608 15.2617 21.75 14.043 21.75V25.75ZM6.62088 23.0345C8.62298 24.7275 11.2161 25.75 14.043 25.75V21.75C12.1967 21.75 10.5108 21.0854 9.20369 19.9801L6.62088 23.0345ZM6.38 20.222L5.07684 21.7755L8.14141 24.3462L9.44457 22.7927L6.38 20.222ZM14 25.75C10.901 25.75 8.09176 24.5268 6.02201 22.5326L3.24666 25.4132C6.03183 28.0966 9.82491 29.75 14 29.75V25.75ZM22.0335 22.4788C19.9586 24.5048 17.1267 25.75 14 25.75V29.75C18.2126 29.75 22.0361 28.0668 24.828 25.3407L22.0335 22.4788ZM22.2964 22.2137C22.2102 22.3035 22.1225 22.3919 22.0335 22.4788L24.828 25.3407C24.9478 25.2238 25.0657 25.1049 25.1816 24.9841L22.2964 22.2137ZM25.5 14.25C25.5 17.342 24.2824 20.1453 22.2964 22.2137L25.1816 24.9841C27.8542 22.2008 29.5 18.4155 29.5 14.25H25.5ZM14 2.75C20.3513 2.75 25.5 7.89873 25.5 14.25H29.5C29.5 5.68959 22.5604 -1.25 14 -1.25V2.75ZM5.948 6.03931C8.02454 4.00261 10.864 2.75 14 2.75V-1.25C9.77481 -1.25 5.94111 0.443224 3.1471 3.18362L5.948 6.03931ZM5.79536 6.19184C5.84576 6.14052 5.89665 6.08968 5.948 6.03931L3.1471 3.18362C3.07801 3.25138 3.00956 3.31978 2.94175 3.38882L5.79536 6.19184ZM2.5 14.25C2.5 11.1109 3.75509 8.26893 5.79536 6.19184L2.94175 3.38882C0.196577 6.18353 -1.5 10.0206 -1.5 14.25H2.5ZM5.7231 22.2339C3.72553 20.1636 2.5 17.352 2.5 14.25H-1.5C-1.5 18.4291 0.156544 22.2254 2.84455 25.0113L5.7231 22.2339ZM6.022 22.5326C5.92056 22.4349 5.82091 22.3353 5.7231 22.2339L2.84455 25.0113C2.97613 25.1477 3.1102 25.2817 3.24667 25.4132L6.022 22.5326ZM2.71785 17.2465L4.75297 17.0681L4.40374 13.0834L2.36861 13.2617L2.71785 17.2465ZM2.54297 14.25C2.54297 14.5855 2.55739 14.9182 2.58573 15.2473L6.57099 14.9042C6.55246 14.689 6.54297 14.4709 6.54297 14.25H2.54297ZM3.8689 8.88508C3.02175 10.4889 2.54297 12.3165 2.54297 14.25H6.54297C6.54297 12.9832 6.85543 11.7953 7.4058 10.7533L3.8689 8.88508ZM2.89982 10.6322L4.701 11.5865L6.57371 8.05194L4.77253 7.09761L2.89982 10.6322ZM4.5 14.25C4.5 12.6392 4.8993 11.1275 5.60264 9.80276L2.06972 7.92701C1.06713 9.81536 0.499999 11.9694 0.499999 14.25H4.5ZM4.53579 15.0818C4.51212 14.8081 4.5 14.5307 4.5 14.25H0.499999C0.499999 14.6459 0.517097 15.0383 0.55067 15.4265L4.53579 15.0818ZM10.0359 7.90874C11.1939 7.17505 12.5657 6.75 14.043 6.75V2.75C11.7856 2.75 9.67447 3.40245 7.89507 4.52984L10.0359 7.90874ZM6.1963 5.56742L7.27094 7.28161L10.66 5.15697L9.58538 3.44277L6.1963 5.56742ZM14 0.749999C11.368 0.749999 8.90635 1.5052 6.82691 2.81156L8.95477 6.19863C10.4154 5.281 12.1426 4.75 14 4.75V0.749999ZM27.5 14.25C27.5 6.79416 21.4558 0.75 14 0.749999V4.75C19.2467 4.75 23.5 9.00329 23.5 14.25H27.5ZM23.543 16.25H25.5V12.25H23.543V16.25ZM14.043 6.75C18.1851 6.75 21.543 10.1079 21.543 14.25H25.543C25.543 7.89873 20.3942 2.75 14.043 2.75V6.75ZM19.543 14.25C19.543 17.2876 17.0805 19.75 14.043 19.75V23.75C19.2897 23.75 23.543 19.4967 23.543 14.25H19.543ZM14.043 8.75C17.0805 8.75 19.543 11.2124 19.543 14.25H23.543C23.543 9.00329 19.2897 4.75 14.043 4.75V8.75ZM8.54297 14.25C8.54297 11.2124 11.0054 8.75 14.043 8.75V4.75C8.79626 4.75 4.54297 9.00329 4.54297 14.25H8.54297ZM14.043 19.75C11.0054 19.75 8.54297 17.2876 8.54297 14.25H4.54297C4.54297 19.4967 8.79626 23.75 14.043 23.75V19.75Z" fill="#003057" mask="url(#path-1-inside-1_4967_5061)"/>
</svg>
